<?xml version="1.0" encoding="utf-8"?><svg xmlns="http://www.w3.org/2000/svg" xmlns:xlink="http://www.w3.org/1999/xlink"><symbol fill="none" viewBox="0 0 20 20" id="icon-address" xmlns="http://www.w3.org/2000/svg"><path d="M1 12h2v7a1 1 0 001 1h12a1 1 0 001-1v-7h2a.998.998 0 00.743-1.669l-9-10c-.379-.422-1.107-.422-1.486 0l-9 10A1 1 0 001 12zm5.653-2.359a2.224 2.224 0 013.125 0l.224.22.223-.22a2.225 2.225 0 013.126 0 2.13 2.13 0 010 3.07L10.002 16l-3.349-3.289a2.13 2.13 0 010-3.07z" fill="#000"/></symbol><symbol fill="none" viewBox="0 0 24 18" id="icon-discord" xmlns="http://www.w3.org/2000/svg"><path d="M20.317 1.492c-1.53-.69-3.17-1.2-4.885-1.49a.075.075 0 00-.079.036c-.21.369-.444.85-.608 1.23a18.566 18.566 0 00-5.487 0 12.36 12.36 0 00-.617-1.23A.077.077 0 008.562 0C6.848.29 5.208.8 3.677 1.491a.07.07 0 00-.032.027C.533 6.093-.32 10.555.099 14.961a.08.08 0 00.031.055 20.031 20.031 0 005.993 2.98.078.078 0 00.084-.026 13.83 13.83 0 001.226-1.963.074.074 0 00-.041-.104 13.2 13.2 0 01-1.872-.878.076.076 0 01-.038-.06.075.075 0 01.03-.065c.126-.093.252-.19.372-.287a.075.075 0 01.078-.01c3.927 1.764 8.18 1.764 12.061 0a.074.074 0 01.079.009c.12.098.245.195.372.288a.075.075 0 01.02.1.075.075 0 01-.026.025c-.598.344-1.22.635-1.873.877a.075.075 0 00-.041.105c.36.687.772 1.341 1.225 1.962a.077.077 0 00.084.028 19.963 19.963 0 006.002-2.981.075.075 0 00.032-.054c.5-5.094-.838-9.52-3.549-13.442a.06.06 0 00-.031-.028zM8.02 12.278c-1.182 0-2.157-1.069-2.157-2.38 0-1.312.956-2.38 2.157-2.38 1.21 0 2.176 1.077 2.157 2.38 0 1.312-.956 2.38-2.157 2.38zm7.975 0c-1.183 0-2.157-1.069-2.157-2.38 0-1.312.955-2.38 2.157-2.38 1.21 0 2.176 1.077 2.157 2.38 0 1.312-.946 2.38-2.157 2.38z" fill="#000"/></symbol><symbol fill="none" viewBox="0 0 24 24" id="icon-gitHub" xmlns="http://www.w3.org/2000/svg"><path fill-rule="evenodd" clip-rule="evenodd" d="M12 0C5.37 0 0 5.37 0 12c0 5.31 3.435 9.795 8.205 11.385.6.105.825-.255.825-.57 0-.285-.015-1.23-.015-2.235-3.015.555-3.795-.735-4.035-1.41-.135-.345-.72-1.41-1.23-1.695-.42-.225-1.02-.78-.015-.795.945-.015 1.62.87 1.845 1.23 1.08 1.815 2.805 1.305 3.495.99.105-.78.42-1.305.765-1.605-2.67-.3-5.46-1.335-5.46-5.925 0-1.305.465-2.385 1.23-3.225-.12-.3-.54-1.53.12-3.18 0 0 1.005-.315 3.3 1.23.96-.27 1.98-.405 3-.405s2.04.135 3 .405c2.295-1.56 3.3-1.23 3.3-1.23.66 1.65.24 2.88.12 3.18.765.84 1.23 1.905 1.23 3.225 0 4.605-2.805 5.625-5.475 5.925.435.375.81 1.095.81 2.22 0 1.605-.015 2.895-.015 3.3 0 .315.225.69.825.57A12.02 12.02 0 0024 12c0-6.63-5.37-12-12-12z" fill="#000"/></symbol><symbol fill="none" viewBox="0 0 16 13" id="icon-mail" xmlns="http://www.w3.org/2000/svg"><path d="M16 3.373V10.5a2.5 2.5 0 01-2.5 2.5h-11A2.5 2.5 0 010 10.5V3.373l7.746 4.558a.5.5 0 00.508 0L16 3.373zM13.5 0a2.5 2.5 0 012.485 2.223L8 6.92.015 2.223A2.5 2.5 0 012.5 0h11z" fill="#000"/></symbol><symbol fill="none" viewBox="0 0 35 34" id="icon-tel" xmlns="http://www.w3.org/2000/svg"><path d="M14.22 19.64a20.37 20.37 0 007.4 4.79l3.77-3a.67.67 0 01.76 0l7 4.51a2.001 2.001 0 01.33 3.18l-3.28 3.24a4 4 0 01-3.63 1.07 35.09 35.09 0 01-17.15-9A33.79 33.79 0 01.15 7.6a3.78 3.78 0 011.1-3.55L4.65.77a2 2 0 013.12.32L12.43 8a.63.63 0 010 .75l-3.07 3.69a19.75 19.75 0 004.86 7.2z" fill="#000"/></symbol><symbol fill="none" viewBox="0 0 26 25" id="icon-telegram" xmlns="http://www.w3.org/2000/svg"><path d="M24.07.996a2.974 2.974 0 00-.933.223h-.004c-.285.113-1.64.683-3.7 1.547l-7.382 3.109c-5.297 2.23-10.504 4.426-10.504 4.426l.062-.024s-.359.118-.734.375a2.03 2.03 0 00-.586.567c-.184.27-.332.683-.277 1.11.09.722.558 1.155.894 1.394.34.242.664.355.664.355h.008l4.883 1.645c.219.703 1.488 4.875 1.793 5.836.18.574.355.933.574 1.207.106.14.23.257.379.351.077.045.16.08.246.106l-.05-.012c.015.004.027.016.038.02.04.011.067.015.118.023.773.234 1.394-.246 1.394-.246l.035-.028 2.883-2.625 4.832 3.707.11.047c1.007.442 2.027.196 2.566-.238.543-.437.754-.996.754-.996l.035-.09 3.734-19.129c.106-.472.133-.914.016-1.343-.12-.434-.4-.808-.781-1.047a1.872 1.872 0 00-1.067-.27zm-.101 2.05c-.004.063.008.056-.02.177v.011l-3.699 18.93c-.016.027-.043.086-.117.145-.078.062-.14.101-.465-.028l-5.91-4.531-3.57 3.254.75-4.79 9.656-9c.398-.37.265-.448.265-.448.028-.454-.601-.133-.601-.133L8.082 14.176l-.004-.02-5.836-1.965v-.004l-.015-.003a.27.27 0 00.03-.012l.032-.016.031-.011s5.211-2.196 10.508-4.426c2.652-1.117 5.324-2.242 7.379-3.11a807.312 807.312 0 013.66-1.53c.082-.032.043-.032.102-.032v-.001z" fill="#000"/></symbol><symbol viewBox="0 0 0 0" id="sprite" xmlns="http://www.w3.org/2000/svg"/></svg>